# xmcd
#
# Track frame offsets:
#	150
#	14992
#	24832
#	42337
#	57377
#	76585
#	91007
#	106522
#	123275
#	143390
#	156265
#	167197
#	183102
#	197505
#
# Disc length: 2823 seconds
#
# Revision: 0
# Processed by: cddbd v1.5.1PL0 Copyright (c) Steve Scherf et al.
# Submitted via: audiograbber 1.83.01
#
DISCID=9e0b050e
DTITLE=Muazzez Ersoy - Nostalji 5
DYEAR=1900
DGENRE=
TTITLE0=Veda
TTITLE1=Benim De Canim Var
TTITLE2=O Agacin Alti
TTITLE3=Merak Etme Sen
TTITLE4=Bitmeyen Cile
TTITLE5=Bilemezsin Ki
TTITLE6=Karli Bir Kis Günü
TTITLE7=Falci
TTITLE8=Sen Bensiz Ben Sensiz
TTITLE9=Sigaramda Duman Duman
TTITLE10=Gezdigim Dikenli Ask Yollarinda
TTITLE11=Sokagin Ardindayim
TTITLE12=Benim Gözüm Sende
TTITLE13=Hasta Ettin Beni
EXTD=
EXTT0=
EXTT1=
EXTT2=
EXTT3=
EXTT4=
EXTT5=
EXTT6=
EXTT7=
EXTT8=
EXTT9=
EXTT10=
EXTT11=
EXTT12=
EXTT13=
PLAYORDER=
